# xmcd
#
# Track frame offsets:
#	150
#	21125
#	41062
#	55050
#	73385
#	86097
#	104622
#	139515
#	165652
#
# Disc length: 2415 seconds
#
# Revision: 2
# Processed by: cddbd v1.4PL0 Copyright (c) Steve Scherf et al.
# Submitted via: CDmax 1.9
#
DISCID=7c096d09
DTITLE=Drink Small - The Blues Doctor
DYEAR=1990
DGENRE=Blues
TTITLE0=Tittie Man
TTITLE1=Little Red Rooster
TTITLE2=So Bad
TTITLE3=Something In the Milk Ain't Clean
TTITLE4=Rub My Belly
TTITLE5=Baby, Leave Your Panties Home
TTITLE6=Stormy Monday Blues
TTITLE7=I'm Going To Move To the Outskirts of Town
TTITLE8=John Henry Ford
EXTD=LABEL =Ichiban Records, Inc.\nID =ICH1062\nUPC =019011-1062-29\nCOPYRI
EXTD=GHT =1990
EXTT0=
EXTT1=
EXTT2=
EXTT3=
EXTT4=
EXTT5=
EXTT6=
EXTT7=
EXTT8=
PLAYORDER=
